# xmcd CD database file
#
# Track frame offsets:
#	182
#	12327
#	25455
#	39632
#	54032
#	65900
#	80405
#	93720
#	107375
#	121815
#	134290
#	144992
#	159220
#	171530
#
# Disc length: 2443 seconds
#
# Revision: 5
# Processed by: cddbd v1.5.2PL0 Copyright (c) Steve Scherf et al.
# Submitted via: CDex 1.51
#
DISCID=b609890e
DTITLE=Dolly Parton - Simply the Best - Her Greatest Hits
DYEAR=1991
DGENRE=Country
TTITLE0=Jolene
TTITLE1=I will always love you
TTITLE2=I really got the feeling
TTITLE3=Lonely comin'  down
TTITLE4=It s my time
TTITLE5=Harper valley PTA
TTITLE6=Here you come again
TTITLE7=The seeker
TTITLE8=We used to
TTITLE9=Mama say a prayer
TTITLE10=Lovin  you
TTITLE11=Sweet music man
TTITLE12=D.i.v.o.r.c.e
TTITLE13=Baby I'm burning
EXTD=YEAR: 1991
EXTT0=
EXTT1=
EXTT2=
EXTT3=
EXTT4=
EXTT5=
EXTT6=
EXTT7=
EXTT8=
EXTT9=
EXTT10=
EXTT11=
EXTT12=
EXTT13=
PLAYORDER=
